<?xml version="1.0" encoding="UTF-8" standalone="no"?>
<svg
   xmlns:dc="http://purl.org/dc/elements/1.1/"
   xmlns:cc="http://creativecommons.org/ns#"
   xmlns:rdf="http://www.w3.org/1999/02/22-rdf-syntax-ns#"
   xmlns:svg="http://www.w3.org/2000/svg"
   xmlns="http://www.w3.org/2000/svg"
   id="svg160"
   version="1.1"
   viewBox="0 0 87.329185 78.186401"
   height="75px"
   width="75px"
>
  <defs
     id="defs154" />
  <metadata
     id="metadata157">
    <rdf:RDF>
      <cc:Work
         rdf:about="">
        <dc:format>image/svg+xml</dc:format>
        <dc:type
           rdf:resource="http://purl.org/dc/dcmitype/StillImage" />
        <dc:title></dc:title>
      </cc:Work>
    </rdf:RDF>
  </metadata>
  <g
     transform="translate(-0.93659458,-0.50501523)"
     id="layer1">
    <path
       style="clip-rule:evenodd;fill-rule:evenodd;stroke-width:0.27242848"
       id="use143"
       d="m 45.597152,27.626201 c -1.727314,0.759226 -3.666738,1.689887 -5.424343,1.273563 0,0 -0.03102,0.514305 1.121239,0.587791 1.151531,0.07336 0.636366,0.465314 0.03101,0.563295 -0.575782,0.04912 0.39393,0.416356 0.666658,0.5388 0.272591,0.122476 0.878803,1.640928 0.151631,2.596084 -0.757602,0.979651 -0.302917,1.542946 -0.181957,1.836826 0.09098,0.269511 -2.424298,7.739259 -4.394014,7.93519 -1.96975,0.220393 -2.848553,1.200044 -3.000045,1.567441 -0.151631,0.367366 -4.72736,4.922719 -8.000169,4.334929 -3.272774,-0.612286 -2.181861,-2.008261 -4.212195,-1.249035 -2.060625,0.73473 -6.060709,5.143144 -7.181949,5.339074 -1.121239,0.220394 -1.757605,0.04912 -1.757605,0.04912 l 1.151531,0.34287 -1.545461,0.587791 c 0,0 0.484839,0.734762 0.848477,0.759226 0.333243,0.02552 -0.484839,-0.122477 -1.090913,-0.318311 -0.575783,-0.147036 -0.302917,0.244952 0.27259,0.416356 0.515165,0.220393 -2.393971,-0.68574 -2.393971,-0.68574 0,0 -0.636401,-0.710267 -0.09098,-1.836858 0.545457,-1.102128 1.181823,-1.591937 1.181823,-1.591937 0,0 -1.515169,0.979651 -1.9090978,1.787867 -0.363672,0.808216 1.0606218,-3.257328 2.3939708,-3.820655 1.363676,-0.587791 1.363676,-0.587791 1.363676,-0.587791 0,0 -4.3637218,0.220394 -4.9395038,3.30635 -0.575783,3.061398 -0.666692,1.37148 -0.666692,-0.31831 0,-1.689887 0,-1.714382 0,-1.714382 0,0 -0.545457,1.493956 -0.484839,3.183874 0.09098,1.665391 -0.302917,3.232833 -0.302917,3.232833 l -1.393968,-1.518451 c 0,0 -0.03102,2.351162 0.454548,3.379772 0.484838,1.004147 0.424255,0.955156 0.424255,0.955156 l -1.303058,-1.6164 c 0,0 0.515165,2.204223 1.151531,2.963448 0.636366,0.734731 0.787893,1.322521 -0.151631,1.444966 -0.909094,0.122476 -0.93942,0.122476 -0.93942,0.122476 0,0 2.454589,0 3.121281,0.465314 0.666692,0.440851 -0.454547,0.244953 -0.818185,0.538833 -0.363637,0.293751 -0.393964,0.31831 -0.393964,0.31831 0,0 1.272767,-0.34287 2.272771,0.122477 0.6363658,0.293752 3.3030998,1.273562 5.0607058,1.910311 -0.939421,0.416356 -2.15157,0.563328 -3.787939,0.661277 -3.1212818,0.244953 -5.8485998,3.355309 -8.3638068,5.975888 -2.51520696,2.645042 -1.63636996,3.820623 -0.27259,4.898224 1.363676,1.077633 2.848553,-2.106242 4.575832,-4.041049 1.757606,-1.934807 4.8788868,-2.645043 7.4546778,-2.938954 1.000038,-0.09792 2.575825,0.0488 4.303104,0.244953 -0.969678,1.27353 -1.848515,2.743023 -2.6667,4.090039 -1.787897,3.012404 -0.636366,3.992054 0.969712,4.849264 1.636405,0.80822 2.272771,-2.547091 3.515211,-4.702324 1.212149,-2.179728 4.090994,-3.404268 6.515291,-4.090039 2.45459,-0.710236 8.394098,-0.220394 11.363818,-1.665391 3.00008,-1.444998 5.000123,-6.465698 5.848599,-8.327051 0.06065,-0.367365 0.06065,-0.68574 0,-0.979651 0.03102,-0.02552 0.03102,-0.0488 0.06065,-0.07336 1.181858,-1.689918 2.727318,-3.624725 2.787936,-2.841005 0.06065,0.808217 -0.515165,1.861354 -0.515165,1.861354 0,0 1.24244,-0.955156 2.787935,-2.351163 1.515169,-1.396007 3.515208,-0.759226 5.909178,-2.302204 2.39401,-1.542915 4.57587,-5.804421 5.06071,-7.690238 0.1213,-0.465346 0.36367,-1.224572 0.63636,-2.057251 0.33325,-0.147036 0.6364,-0.318311 0.90913,-0.514337 2.33339,-1.42047 5.42435,-2.375658 8.00014,-2.987912 2.5455,-0.636781 6.15162,-2.179728 8.42439,-2.620579 2.27277,-0.465346 4.72736,-2.669537 4.24252,-3.575734 -0.45455,-0.906166 -2.06066,-2.449112 -3.27278,-1.077601 -1.33338,1.053105 -4.51525,2.987912 -6.78802,3.35531 -2.27277,0.39186 -6.60616,0.93066 -8.69711,1.787835 -0.57579,0.269512 -1.21215,0.465346 -1.84855,0.661276 0,-1.053137 -0.24227,-1.983797 -0.84848,-2.571588 -0.27259,-0.244952 -0.48487,-0.440819 -0.72728,-0.661244 1.33335,-1.763372 3.27278,-3.4043 4.96977,-4.702326 1.96975,-1.444997 4.33343,-4.090039 6.12132,-5.339106 1.75761,-1.224572 2.75765,-4.065545 1.87884,-4.702326 -0.90912,-0.661276 -3.21219,-1.493956 -3.54553,0.195835 -0.63637,1.420502 -2.42427,4.285969 -4.24249,5.461551 -1.78793,1.126591 -5.42434,3.183874 -6.81831,4.702325 -0.0606,0.0488 -0.091,0.09792 -0.15163,0.147036 0.51516,-1.273531 0.90913,-2.767487 1.06062,-3.330814 0.24227,-1.02861 0.51517,-2.424617 0.78789,-3.061398 0.27259,-0.612286 0.7879,-1.322521 1.24244,-1.763372 0.45459,-0.465346 0.84852,-1.444998 0.87884,-1.959302 0.0606,-0.514305 -0.30291,-0.710236 -0.30291,-0.710236 0,0 -0.031,-0.02551 0.27259,-0.195834 0.30291,-0.195835 1.12124,-0.391861 1.06062,-0.587791 -0.0606,-0.147035 -0.57575,-0.122476 -1.12121,-0.09792 -0.48487,0 -0.8788,0.244953 -0.8788,0.244953 0,0 -0.1213,-0.269512 -0.1213,-0.759226 -0.031,-0.5388 -0.57575,-1.763372 -1.09092,-2.204223 -0.48487,-0.416356 -1.09095,0.269512 -1.54549,0.538832 -0.48488,0.293752 -1.48488,0.661245 -2.30306,1.053105 -0.81822,0.367365 -2.39401,1.567442 -2.87885,1.763372 -0.48487,0.195835 -1.15153,0.0488 -1.72731,-0.09792 -0.57579,-0.195835 -1.636406,0.244952 -2.424299,0.416355 -0.787893,0.171595 -1.151531,0.734763 -1.909098,1.273563 -0.757602,0.5388 -1.212149,0.09792 -2.121278,0.147035 -0.878803,0.04912 -0.818185,0 -1.757571,-0.759225 -0.93942,-0.759226 -3.242517,-0.930661 -3.697064,-0.710235 0.393964,2.081746 2.727317,3.281823 2.939462,3.428763 0.181957,0.147035 0.818185,1.567441 0.818185,1.567441 0,0 0.424256,0.636782 1.272767,1.591937 0.181957,0.269512 0.424221,0.587791 0.666658,0.930661 z M 75.173425,4.6044162 c 5.93951,-3.355309 11.6972,-4.97171001 12.87902,-3.62469301 1.18186,1.37151101 -2.6667,5.19213501 -8.57588,8.54744401 -5.93951,3.3553088 -11.6972,4.9717408 -12.87906,3.6247248 -1.18182,-1.371544 2.66674,-5.1921668 8.57592,-8.5474758 z" />
  </g>
</svg>
